<?xml version="1.0" encoding="UTF-8"?>
<svg id="Calque_1" data-name="Calque 1" xmlns="http://www.w3.org/2000/svg" version="1.1" viewBox="0 0 219.5 192.6">
  <defs>
    <style>
      .cls-1 {
        fill: #000;
      }

      .cls-1, .cls-2, .cls-3 {
        stroke-width: 0px;
      }

      .cls-2 {
        fill: #9a8fe0;
      }

      .cls-3 {
        fill: #fff;
      }
    </style>
  </defs>
  <path class="cls-3" d="M139.3,107.6c0-.2,0-.5,0-.7,0,0,0,.2,0,.7ZM139.3,107.6c0,.3-.1.8-.1,1.5,0-.5.1-1,.1-1.5ZM139.3,107.6c0-.2,0-.5,0-.7,0,0,0,.2,0,.7ZM139.3,107.6c0,.3-.1.8-.1,1.5,0-.5.1-1,.1-1.5Z"/>
  <path class="cls-3" d="M166.1,75.2c11.9-9.3,17.6-21.6,15.9-34.8-2.1-16.5-15.8-31.1-32.5-34.8-8.2-1.8-16.2-2.7-23.6-2.7-28.6,0-50.7,14.1-59,37.6-5,14.2-3.8,29.4,2.4,41.2-22.2,1.4-49.9,11.6-61.7,29.6-6.5,9.8-7.5,20.7-2.8,31.6,7.1,16.7,24.4,25.9,48.7,25.9s61.1-12.8,79.1-32.3c1.4,13.3,5.3,27.9,14.3,37.8,7,7.6,16.2,11.5,27.2,11.5s3.5-.1,5.2-.3c18.9-2,31.4-13,34.2-30.3,4-24.6-12.7-59.4-47.4-79.9ZM139.4,106.8c0,.2,0,.5,0,.7,0,.5,0,1-.1,1.5,0-.6.1-1.1.1-1.5,0-.5,0-.7,0-.7Z"/>
  <g>
    <path class="cls-2" d="M148,12.1c26,5.8,44,43.5,4.6,63.6,58.1,26.5,74.9,97.8,26,102.9-48.9,5.1-39.2-71.8-39.2-71.8-2.5,46.9-109.3,78.3-128.4,33.3-14.4-33.9,41.8-56.3,72.9-51.2-28.8-23.1-12.2-93.7,64.2-76.8Z"/>
    <path class="cls-1" d="M125.9,9.5c6.7,0,14.1.8,22.1,2.6,26,5.8,44,43.5,4.6,63.6,58.1,26.5,74.9,97.8,26,102.9-1.6.2-3.1.2-4.5.2-38.6,0-36.1-55.9-35-69.3.1-.9.2-1.9.3-2.8,0,0-.1,1-.3,2.8-4.3,29.5-49.5,52.3-85.6,52.3s-36-6.5-42.5-21.8c-13-30.6,31.7-51.9,63.4-51.9s6.5.2,9.5.7c-25.8-20.7-15.2-79.4,42.1-79.4M125.9,2.8h0c-28.6,0-50.7,14.1-59,37.6-5,14.2-3.8,29.4,2.4,41.2-22.2,1.4-49.9,11.6-61.7,29.6-6.5,9.8-7.5,20.7-2.8,31.6,7.1,16.7,24.4,25.9,48.7,25.9s61.1-12.8,79.1-32.3c1.4,13.4,5.2,27.9,14.3,37.8,7,7.6,16.2,11.5,27.2,11.5s3.4,0,5.2-.3c18.9-2,31.4-13,34.2-30.3,4-24.6-12.6-59.4-47.4-79.9,11.9-9.3,17.6-21.6,15.9-34.8-2.1-16.5-15.8-31.1-32.5-34.8-8.2-1.8-16.2-2.7-23.6-2.7h0Z"/>
  </g>
  <g>
    <ellipse class="cls-3" cx="142.7" cy="66.5" rx="17.8" ry="31.2" transform="translate(-13.9 50.9) rotate(-19.3)"/>
    <path class="cls-1" d="M135.9,36.5c8.6,0,18.6,9.9,23.6,24.1,5.7,16.2,2.8,32-6.5,35.3-1.1.4-2.3.6-3.5.6-8.6,0-18.6-9.9-23.6-24.1-5.7-16.2-2.8-32,6.5-35.3,1.1-.4,2.3-.6,3.5-.6M135.9,29.7h0c-2,0-3.9.3-5.7,1-6.8,2.4-11.6,8.9-13.3,17.9-1.4,7.8-.5,17,2.6,26,5.9,16.9,18.2,28.6,30,28.6s3.9-.3,5.7-1c6.8-2.4,11.6-8.9,13.3-17.9,1.4-7.8.5-17-2.6-26-5.9-16.9-18.2-28.6-30-28.6h0Z"/>
  </g>
  <g>
    <path class="cls-2" d="M115.4,69.1c31.7-7.8,35.2,3.8,19,6.9-24,4.6-26,.5-26,.5l7-7.3Z"/>
    <path class="cls-1" d="M133.7,66.5c13.9,0,13,7.2.7,9.5-8.6,1.6-14.3,2.2-18.2,2.2-7,0-7.8-1.7-7.8-1.7l7-7.3c7.7-1.9,13.8-2.7,18.3-2.7M133.7,59.7h0c-5.5,0-12.2,1-19.9,2.9-1.3.3-2.4,1-3.3,1.9l-7,7.3c-1.9,2-2.4,5.1-1.2,7.6,2.7,5.5,11.1,5.5,13.9,5.5,5,0,11.5-.8,19.5-2.3,14.7-2.8,15.1-10.8,14.9-13.1-.3-2.9-2.5-9.8-16.9-9.8h0Z"/>
  </g>
  <g>
    <ellipse class="cls-3" cx="101" cy="66.5" rx="31.2" ry="17.8" transform="translate(6.3 141.7) rotate(-71.8)"/>
    <path class="cls-1" d="M107.4,36.3c1.1,0,2.2.2,3.3.5,9.3,3.1,12.6,18.8,7.2,35.2-4.8,14.5-14.6,24.6-23.3,24.6s-2.2-.2-3.3-.5c-9.3-3.1-12.6-18.8-7.2-35.2,4.8-14.5,14.6-24.6,23.3-24.6M107.4,29.6h0c-11.9,0-24.1,12-29.8,29.2-3,9-3.7,18.2-2.1,26,1.8,9,6.8,15.4,13.6,17.7,1.7.6,3.6.9,5.4.9,11.9,0,24.1-12,29.8-29.2,3-9,3.7-18.2,2.1-26-1.8-9-6.8-15.4-13.6-17.7-1.7-.6-3.6-.9-5.4-.9h0Z"/>
  </g>
  <path class="cls-1" d="M97.7,64.9c0,.3-.3,2.4-2.1,3.3-1.8.9-4-.3-5.1-1.4-.3-.3-1.5-1.5-1.4-3.1.2-2.5,3.3-4.9,5.9-4,2.1.7,2.9,3.3,2.6,5.2Z"/>
  <path class="cls-1" d="M140.4,61.8c0,.3-.3,2.4-2.1,3.3-1.8.9-4-.3-5.1-1.4-.3-.3-1.5-1.5-1.4-3.1.2-2.5,3.3-4.9,5.9-4,2.1.7,2.9,3.3,2.6,5.2Z"/>
  <g>
    <path class="cls-3" d="M92,110.8c9.3,4.6,40,13.7,57.3,10,11.4-2.4,7.9-13.9-.4-12.2-7.2.5-30.1,1.2-51.1-10.2-7.2-5.5-15.3,7.7-5.9,12.3Z"/>
    <path class="cls-1" d="M140,125c-18.5,0-42-7.5-49.5-11.2h0c-3.9-1.9-6.1-5.3-6.1-9.3,0-4.1,2.4-8.1,6-9.8,3.1-1.5,6.5-1.2,9.3.9,19.3,10.4,40.4,10.2,48.8,9.7,6.1-1.1,10.4,2.7,11.2,7,.9,4.5-1.7,10.2-9.7,11.9-3,.6-6.4.9-10,.9ZM94.3,100.5c-.4,0-.7.1-.9.2-1.2.6-2.2,2.3-2.2,3.8,0,1.4.8,2.5,2.3,3.2h0c9.1,4.5,38.8,13.2,55.1,9.7,3-.6,4.9-2.2,4.5-3.9-.2-1.1-1.4-2.1-3.5-1.7-.1,0-.3,0-.4,0-8.9.6-31.9.8-52.9-10.6-.2,0-.3-.2-.4-.3-.6-.5-1.1-.6-1.6-.6Z"/>
  </g>
</svg>