<?xml version="1.0" encoding="utf-8"?>
<!-- Generator: Adobe Illustrator 28.4.1, SVG Export Plug-In . SVG Version: 6.00 Build 0)  -->
<svg version="1.1" baseProfile="tiny" id="Calque_1"
	 xmlns="http://www.w3.org/2000/svg" xmlns:xlink="http://www.w3.org/1999/xlink" x="0px" y="0px" viewBox="0 0 219.5 192.6"
	 overflow="visible" xml:space="preserve">
<g>
	<path fill="#FFFFFF" d="M155,179.4c68.1,0,64.7-75.2,49.4-111c-21.1-49.7-142.1-61.2-184-2C1,93.8-13.1,175.9,78,180.4
		C126.2,182.8,155,179.4,155,179.4z"/>
	<path d="M113.1,26.4c40.7,0,80.1,15.6,91.3,42c15.2,35.8,18.7,111-49.4,111c0,0-15.8,1.9-43.7,1.9c-9.7,0-20.9-0.2-33.3-0.9
		c-91.1-4.5-77-86.6-57.6-114C40.1,38.6,77.1,26.4,113.1,26.4 M113.1,20.4c-19.5,0-38.4,3.5-54.7,10C39.9,37.9,25.5,48.8,15.5,63
		C3.2,80.3-7.5,118.2,7,148.1c5.4,11,13.7,19.9,24.7,26.3c12.2,7.1,27.6,11.1,46,12c11.4,0.6,22.8,0.9,33.6,0.9
		c25.9,0,41.4-1.6,44-1.9c12.1,0,22.8-2.4,31.8-6.9c8.4-4.2,15.3-10.4,20.6-18.4c18.9-28.5,11.7-71.9,2.3-94c-6-14-19-25.8-37.7-34
		C155.3,24.6,134.3,20.4,113.1,20.4L113.1,20.4z"/>
</g>
<g>
	<path fill="#FFFFFF" d="M66.5,33.8c-31.8,5.6,10.7-48,33.1-6.8c-0.6-49.5,64.2-8.4,25.8-0.6L66.5,33.8z"/>
	<path d="M62.3,37.2c-7,0-9.1-3.5-9.8-5.8c-2-6.8,5.6-16.9,15.9-21.1c10.7-4.4,21.1-1.4,29,7.9C100,3,110.3,0.4,115.2,0.1
		c11.4-0.8,24.2,7.2,25.4,16c0.4,3-0.1,10.5-14.5,13.4c-1.6,0.3-3.2-0.7-3.5-2.3c-0.3-1.6,0.7-3.2,2.3-3.5c3.1-0.6,10.3-2.5,9.7-6.7
		c-0.7-5.1-10.4-11.5-19-10.8c-8.6,0.6-13.1,7.9-13,20.9c0,1.4-0.9,2.6-2.2,2.9c-1.3,0.3-2.7-0.3-3.4-1.5
		c-9.1-16.7-20.5-15-26.4-12.6c-3.8,1.6-7.3,4.2-9.8,7.4c-2.3,2.9-2.9,5.4-2.6,6.5c0.4,1.4,3.5,1.9,7.8,1.1c1.6-0.3,3.2,0.8,3.5,2.4
		c0.3,1.6-0.8,3.2-2.4,3.5C65.2,37.1,63.6,37.2,62.3,37.2z"/>
</g>
<g>
	<path fill="#FFFFFF" d="M32.7,145.4c16.3,32.4,15,51.4,66.5,35.9c18.2,5.6,24.6-7.1,22.3-26.4c-2.3-19.3,0.6-22.5-4.5-31.8
		c-5.1-9.3-5.7-11-8.3-13.1c-11-9.5-16.1-4.5-17.4,7.8c-7.8,2.1-15.3,7.4-5.1,37.5c-12.3,4.2-17.8,1.9-24.8-15L32.7,145.4z"/>
	<path d="M70,189.8c-5.9,0-10.8-1.1-14.8-3.2c-9.1-4.8-13.5-14.5-19.1-26.8c-1.9-4.1-3.8-8.4-6.1-13c-0.7-1.5-0.1-3.3,1.3-4
		c1.5-0.7,3.3-0.1,4,1.3c2.4,4.7,4.4,9.3,6.2,13.2c10.8,23.8,15.2,33.7,56.8,21.1c0.6-0.2,1.2-0.2,1.8,0c6.2,1.9,10.8,1.6,13.9-1
		c4.2-3.5,5.8-11.4,4.5-22.1c-0.9-7.6-1-12.6-1.1-16.6c-0.1-6.2-0.2-9-3-14.1c-0.8-1.6-1.6-2.9-2.2-4.1c-3.2-5.8-3.7-6.9-5.4-8.2
		c-3.8-3.3-6.9-4.8-8.6-4.1c-0.9,0.3-3,2-3.8,10c-0.1,1.2-1,2.3-2.2,2.6c-3.4,0.9-5.3,2.2-6.5,4.3c-2.6,4.9-1.5,14.8,3.4,29.3
		c0.5,1.6-0.3,3.3-1.9,3.8c-14.3,4.9-21.3,0.9-28.5-16.7c-0.6-1.5,0.1-3.3,1.6-3.9c1.5-0.6,3.3,0.1,3.9,1.6
		c6.1,14.8,10.3,16.5,18.2,14.3c-4.8-15-5.4-24.9-2.1-31.2c2.1-3.9,5.3-5.7,8.2-6.7c1-7.1,3.4-11.4,7.3-12.9
		c4.1-1.6,8.9,0.1,14.7,5.1c2.5,2.1,3.5,3.9,6.7,9.9c0.6,1.2,1.3,2.5,2.2,4c3.5,6.4,3.6,10.3,3.7,16.8c0.1,3.9,0.2,8.8,1.1,16.1
		c1.6,13.1-0.7,22.5-6.6,27.5c-4.6,3.8-10.8,4.6-18.6,2.4C87.1,188,77.7,189.8,70,189.8z"/>
</g>
<path d="M122.2,187.7c-3.6,0-7-1.6-10.4-3.9c-1.4-0.9-1.7-2.8-0.8-4.2c0.9-1.4,2.8-1.7,4.2-0.8c6.9,4.7,10.4,3.3,16.1-1.8
	c0.8-0.7,1.9-1,3-0.6c14.2,4.8,24.4,5,30.4,0.7c8.9-6.4,8.9-22.6,8.9-38.2l0-2.4c0-1.7,1.3-3,3-3s3,1.3,3,3l0,2.4
	c0,17.1,0.1,34.8-11.4,43c-7.5,5.4-18.7,5.6-34.2,0.6C129.6,186.2,125.8,187.7,122.2,187.7z"/>
<path d="M140,159.8c-2,0-4.6-0.7-7.3-3.3c-3.2-3.2-5.1-7.7-5.1-12.6v-16.2c0-4.3-3.2-5.9-3.6-6c-1.1-0.5-1.8-1.5-1.8-2.7
	c-0.2-5.1-6-9.1-6.1-9.2c-0.8-0.6-1.3-1.5-1.3-2.5c0-2-2.5-3.4-5-3.8c-2-0.3-4.2,0.1-4.6,1.4c-0.4,1.6-2.1,2.5-3.7,2.1
	c-1.6-0.4-2.5-2.1-2.1-3.7c1.2-4.2,5.6-6.5,11.2-5.8c5.3,0.7,9.2,4,10,8.1c2.1,1.7,6.5,5.8,7.4,11.4c2.1,1.4,5.6,4.7,5.6,10.6v16.2
	c0,3.2,1.2,6.2,3.3,8.3c2.2,2.1,3.5,1.6,4,1.4c3.5-1.3,7.1-8.8,7.9-16.4c0.2-1.6,1.6-2.8,3.3-2.7c1.6,0.2,2.9,1.6,2.7,3.3
	c-0.9,8.6-4.9,18.9-11.8,21.4C142.2,159.5,141.2,159.8,140,159.8z"/>
<path d="M91.9,141.9c-1.4,0-2.6-0.9-2.9-2.3c-2-8.2-0.7-21.5-0.6-22c0.2-1.6,1.6-2.9,3.3-2.7c1.6,0.2,2.9,1.6,2.7,3.3
	c0,0.1-1.3,12.8,0.5,20c0.4,1.6-0.6,3.2-2.2,3.6C92.4,141.9,92.2,141.9,91.9,141.9z"/>
<path d="M101.1,142.4c-1.5,0-2.7-1.1-3-2.5c-3.4-22.1,3.9-30.5,8.6-33.5c4.5-2.9,10.1-3.1,14.1-0.4c1.4,0.9,1.8,2.8,0.9,4.2
	s-2.8,1.8-4.2,0.9c-1.6-1-4.6-1.6-7.6,0.4c-2.8,1.8-8.9,8.1-5.9,27.5c0.3,1.6-0.9,3.2-2.5,3.4C101.4,142.4,101.2,142.4,101.1,142.4z
	"/>
<path d="M110,152.9c-1.6,0-2.9-1.2-3-2.8c-1.9-30.1,2.5-33,16.5-34l1.5-0.1c1.7-0.1,3.1,1.1,3.2,2.8c0.1,1.7-1.1,3.1-2.8,3.2
	l-1.5,0.1c-6.1,0.5-8.1,0.8-9.5,3.1c-1.9,3.3-2.3,10.8-1.5,24.5c0.1,1.7-1.2,3.1-2.8,3.2C110.1,152.9,110,152.9,110,152.9z"/>
<path d="M70.8,74c1.4,10-4.5,15.4-13.9,13.9c-9.4-1.5-11.8-21.1,3.4-20.3c0,0-0.8-7.4-1.6-15c-0.4-4.2,2.3-8.2,6.4-9.2
	c5.4-1.4,10.1-2.6,13.7-3.5c4.9-1.3,9.8,1.9,10.6,6.9c1.5,9.1,2.1,15.2,2.2,20.4c0.3,10.6-22.1,10.1-19.8-0.9
	c2.9-14,13.1-4.1,13.1-4.1c-0.4-4.5-1.4-9.4-1.9-13.1c-0.1-0.6-0.7-1-1.2-0.8l-12.7,3.3c-0.5,0.1-0.8,0.6-0.7,1.1L70.8,74z"/>
<path d="M138.2,70.5c-1.9,9.9-9.2,13.2-17.6,8.8s-4.4-23.8,9.7-18.1c0,0,1.6-7.2,3.3-14.7c0.9-4.2,4.8-7,9-6.7
	c5.6,0.4,10.4,0.8,14.2,1c5,0.4,8.6,5,7.9,9.9c-1.5,9.1-2.9,15-4.4,20.1c-3.1,10.1-24.2,2.5-18.5-7.2c7.2-12.3,13.7,0.3,13.7,0.3
	c1.1-4.4,1.7-9.3,2.4-13.1c0.1-0.6-0.3-1.1-0.9-1.2l-13-0.9c-0.5,0-0.9,0.3-1,0.8L138.2,70.5z"/>
<g>
	<path fill="#FFFFFF" d="M97,75.2c48.4-17.3,53.7,8.4,29.1,15.2c0,0-7.3,3.1-23.7,1.9"/>
	<path d="M109.6,95.6c-2.3,0-4.7-0.1-7.5-0.3c-1.7-0.1-2.9-1.6-2.8-3.2c0.1-1.7,1.6-2.9,3.2-2.8c15.3,1.1,22.3-1.6,22.4-1.7
		c0.1,0,0.2-0.1,0.3-0.1c7.4-2.1,11.4-5.9,12.1-8.8c0.3-1.4-0.1-2.6-1.2-3.6c-4-3.5-16.3-4.9-38.1,2.9c-1.6,0.6-3.3-0.3-3.8-1.8
		c-0.6-1.6,0.3-3.3,1.8-3.8c20.9-7.5,36.9-8.1,44.1-1.7c2.8,2.5,3.9,5.9,3.1,9.4c-1.3,5.8-7.4,10.7-16.2,13.2
		C125.9,93.7,120.3,95.6,109.6,95.6z"/>
</g>
</svg>
