<?xml version="1.0" encoding="UTF-8"?>
<svg id="Calque_1" data-name="Calque 1" xmlns="http://www.w3.org/2000/svg" version="1.1" viewBox="0 0 149.9 406.8">
  <defs>
    <style>
      .cls-1 {
        fill: #a6d1a5;
      }

      .cls-1, .cls-2, .cls-3, .cls-4, .cls-5 {
        stroke-width: 0px;
      }

      .cls-2 {
        fill: none;
      }

      .cls-3 {
        fill: #000;
      }

      .cls-4 {
        fill: #eed75e;
      }

      .cls-5 {
        fill: #fff;
      }
    </style>
  </defs>
  <path class="cls-1" d="M91.3,406.8h-27c0-63.9-17.8-118.6-33.6-166.9-12.7-39-23.7-72.7-22.3-103,1.6-35,20.2-61.4,56.8-80.8l12.6,23.9c-36.1,19.1-41.7,41.1-42.4,58.1-1.1,25.4,9.1,56.9,21,93.4,15.6,47.7,34.9,107.1,34.9,175.3Z"/>
  <rect class="cls-2" x="-28.6" y="-19.9" width="288.5" height="426.6"/>
  <g>
    <path class="cls-4" d="M144.4,40.7c-1.1-2.9-8.9-3.4-24-3.3.2-.7.4-1.5.5-2.2.4-1.7,4.7-22.8-1.2-25.5-3-1.3-9.1,4.2-20.5,15.8-7.3-12.4-13-21.3-18.5-20.4-6.5,1-9.2,14.8-9.6,16.9-.4,2.4-.6,4.6-.4,7.3-10.8-2.6-18.5-3.6-21.3.2-3.9,5.3,4,17,5.2,18.7,1.4,2,2.8,3.7,4.9,5.4-9.5,5.8-15.7,10.6-14.9,15.2,1,6.5,14.8,9.2,16.9,9.6,2.4.4,4.6.6,7.3.4-2.6,10.8-3.6,18.5.2,21.3,5.3,3.9,17-4,18.7-5.2,1.6-1.1,3.1-2.3,4.5-3.8,4,5.5,11.9,15.5,16.6,13.8,2.9-1.1,3.4-8.9,3.3-24,.7.2,1.5.4,2.2.5,1.7.4,22.8,4.7,25.5-1.2,1.3-2.8-3.8-8.7-14.6-19.3.7-.4,1.3-.8,2-1.2,1.5-1,19.5-12.8,17.1-18.9Z"/>
    <path class="cls-3" d="M80.2,5.1c.2,0,.4,0,.6-.1,5.5-.9,11.2,8,18.5,20.4,9.3-9.4,15.1-14.9,18.5-15.8s1.4-.2,2,0c6,2.7,1.6,23.7,1.2,25.5-.2.8-.3,1.5-.5,2.2,15.1,0,22.9.4,24,3.3,2.3,6.1-15.6,17.9-17.1,18.9-.7.4-1.3.8-2,1.2,10.7,10.6,15.9,16.5,14.6,19.3-.5,1.2-1.8,2-3.5,2.5-6.8,1.9-20.6-.9-21.9-1.2-.8-.2-1.5-.3-2.2-.5,0,15.1-.4,22.9-3.3,24,0,0-.2,0-.3,0-4.7,1.3-12.4-8.4-16.3-13.8-1.4,1.5-2.8,2.7-4.5,3.8-1.1.8-6.3,4.3-11.3,5.7s-5.5.9-7.4-.5c-3.8-2.8-2.8-10.5-.2-21.3-2.7.3-4.9,0-7.3-.4-2.1-.4-15.9-3.1-16.9-9.6-.7-4.7,5.5-9.4,14.9-15.2-2.1-1.7-3.5-3.4-4.9-5.4-1.2-1.7-9-13.4-5.2-18.7.7-1,1.8-1.7,3.2-2.1,3.9-1.1,10.2,0,18.1,1.9-.3-2.7,0-4.9.4-7.3.4-2,2.9-15.1,9-16.8M79.2,1.6c-2.5.7-8.7,4.1-11.6,19.6-.2,1.2-.4,2.3-.5,3.4-6.4-1.3-11.6-1.9-15.4-.8-2.2.6-4,1.8-5.2,3.4-5,6.8,1.9,18.3,5.1,23,.7,1,1.4,1.9,2.1,2.7-7.7,5-13.6,10.1-12.7,16.4,1.3,8.3,14.3,11.6,19.9,12.6,1.2.2,2.3.4,3.4.5-1.9,8.9-2.5,16.8,2.7,20.6,2.6,1.9,6.2,2.3,10.6,1.1s10.4-4.8,12.4-6.2c.7-.5,1.3-.9,1.9-1.4,9.6,12.4,14.7,12.8,17.8,11.9s.4-.1.6-.2c4.8-1.8,5.7-8.5,5.7-22.8,4.9.9,15.3,2.5,21.5.7s4.9-2.3,5.9-4.5c2.1-4.7-2-10-12.1-20.2,2.1-1.4,5.4-3.8,8.5-6.6,4.5-3.9,10.3-9.8,8.2-15.5-1.8-4.8-8.5-5.7-22.8-5.7.5-2.5,1.1-6.5,1.4-10.7.4-6,.3-14.2-5.2-16.7-1.4-.6-2.9-.7-4.5-.2-3.8,1.1-8.6,5.2-16.8,13.4C93.7,9,87.6.2,80.2,1.3c-.3,0-.7.1-1,.2h0s0,0,0,0h0Z"/>
  </g>
  <g>
    <ellipse class="cls-5" cx="103.5" cy="44.3" rx="9.7" ry="17" transform="translate(-6.7 67.4) rotate(-35)"/>
    <path class="cls-3" d="M95.5,29.5c4.5-1.3,11.2,2.4,16,9.2,5.4,7.7,6.2,16.5,1.8,19.5-.5.4-1.1.7-1.8.8-4.5,1.3-11.2-2.4-16-9.2-5.4-7.7-6.2-16.5-1.8-19.5.5-.4,1.1-.7,1.8-.8M94.5,26h0c-1,.3-2,.8-2.9,1.4-3.2,2.3-4.8,6.4-4.3,11.4.4,4.3,2.3,9,5.2,13.3,5.6,8,13.8,12.4,20,10.6s2-.8,2.9-1.4c3.2-2.3,4.8-6.4,4.3-11.4-.4-4.3-2.3-9-5.2-13.3-5.6-8-13.8-12.4-20-10.6h0Z"/>
  </g>
  <g>
    <path class="cls-4" d="M89.5,49.8c15.5-8.8,19.1-3.2,11,.8-11.9,6-13.6,4.1-13.6,4.1l2.6-4.9Z"/>
    <path class="cls-3" d="M98.7,45.7c7.3-2.1,7.9,1.9,1.8,4.9-4.3,2.1-7.2,3.3-9.3,3.8-3.7,1-4.4.3-4.4.3l2.6-4.9c3.8-2.2,6.9-3.4,9.2-4.1M97.7,42.1h0c-2.9.8-6.3,2.3-10.1,4.5-.6.3-1.1.9-1.4,1.5l-2.6,4.9c-.7,1.4-.5,3,.5,4.2,2.2,2.5,6.7,1.2,8.1.8,2.6-.7,6-2.1,9.9-4.1,7.3-3.7,6.4-7.9,5.9-9.1-.6-1.5-2.8-4.8-10.3-2.7h0Z"/>
  </g>
  <g>
    <ellipse class="cls-5" cx="81.5" cy="50.5" rx="17" ry="9.7" transform="translate(27.5 129.8) rotate(-87.5)"/>
    <path class="cls-3" d="M80.4,33.7c.6-.2,1.2-.2,1.8-.2,5.4.2,9.4,8,9,17.4-.4,8.3-4.1,15.1-8.6,16.4s-1.2.2-1.8.2c-5.4-.2-9.4-8-9-17.4.4-8.3,4.1-15.1,8.6-16.4M79.4,30.1h0c-6.2,1.8-10.9,9.9-11.3,19.8-.5,11.6,5,21,12.5,21.3,1,0,2,0,3-.3,6.2-1.8,10.9-9.9,11.3-19.8.2-5.2-.7-10.2-2.7-14-2.3-4.5-5.9-7.1-9.8-7.3-1,0-2,0-3,.3h0Z"/>
  </g>
  <path class="cls-3" d="M85.5,61.7c0,.2.2,1.3-.6,2-.8.8-2.1.4-2.9,0-.2-.1-1-.6-1.2-1.4-.3-1.3,1-3.1,2.5-3,1.2,0,2,1.3,2.2,2.4Z"/>
  <path class="cls-3" d="M110.9,55c0,.2.2,1.3-.6,2-.8.8-2.1.4-2.9,0-.2-.1-1-.6-1.2-1.4-.3-1.3,1-3.1,2.5-3,1.2,0,2,1.3,2.2,2.4Z"/>
  <g>
    <path class="cls-5" d="M83.4,75.2c5.6,1,23.1,1.3,31.7-3.2,5.6-2.9,2.1-8.5-2-6.4-3.7,1.3-15.7,5.1-28.4,2.2-4.6-1.8-6.9,6.3-1.3,7.4Z"/>
    <path class="cls-3" d="M110.7,75.6c-9.7,2.7-23.2,2.3-27.7,1.4h0c-2.3-.4-4-1.9-4.6-4-.6-2.2,0-4.6,1.7-6.1,1.4-1.3,3.2-1.6,5.1-.9,11.7,2.6,22.8-.6,27.1-2.1,3.1-1.5,5.9-.1,6.9,2,1.2,2.2.6,5.6-3.4,7.7-1.5.8-3.3,1.4-5.1,2ZM83.7,73.4c5.4,1,22.4,1.2,30.5-3,1.5-.8,2.2-1.9,1.8-2.7-.3-.6-1.1-.9-2.1-.4,0,0-.1,0-.2,0-4.6,1.6-16.6,5.2-29.4,2.3,0,0-.2,0-.3,0-.7-.3-1.1,0-1.4.2-.6.5-.8,1.5-.6,2.3.2.7.8,1.2,1.7,1.4h0Z"/>
  </g>
</svg>