<?xml version="1.0" encoding="UTF-8"?>
<svg id="Calque_1" data-name="Calque 1" xmlns="http://www.w3.org/2000/svg" version="1.1" viewBox="0 0 149.9 392.7">
  <defs>
    <style>
      .cls-1 {
        fill: #a6d1a5;
      }

      .cls-1, .cls-2, .cls-3, .cls-4, .cls-5 {
        stroke-width: 0px;
      }

      .cls-2 {
        fill: none;
      }

      .cls-3 {
        fill: #000;
      }

      .cls-4 {
        fill: #eed75e;
      }

      .cls-5 {
        fill: #fff;
      }
    </style>
  </defs>
  <path class="cls-1" d="M122.5,395.9l-26-.2c.6-93.4-4.8-170.6-15.9-229.3-9.2-48.8-20.4-74.3-27.9-89.2l23.2-11.8c8.3,16.3,20.4,44,30.3,96.1,11.4,60.4,17,139.2,16.4,234.3Z"/>
  <rect class="cls-2" x="-28.6" y="-19.9" width="288.5" height="426.6"/>
  <path class="cls-5" d="M69.5,60.2c0-.2-.2-.4-.2-.5,0,.2.2.3.2.5ZM69.5,60.2c0-.2-.2-.4-.2-.5,0,.2.2.3.2.5Z"/>
  <g>
    <path class="cls-4" d="M48.8,9.3c14.7-3.9,33.7,10.5,19.1,31,36.4-1.9,63.7,29.8,40.2,45.3-23.4,15.5-38.8-26.1-38.8-26.1,11,24.4-34.7,68.4-56.3,50.6-16.2-13.4,6.3-39.5,23.4-45.1C15.8,61,5.6,20.8,48.8,9.3Z"/>
    <path class="cls-3" d="M36.9,13.8c3.4-1.8,7.4-3.3,11.9-4.5,14.7-3.9,33.7,10.5,19.1,31,36.4-1.9,63.7,29.8,40.2,45.3-.8.5-1.5.9-2.2,1.3-19.5,10.1-33-18.8-35.9-25.9-.2-.5-.4-1-.6-1.5,0,0,.2.6.6,1.5,5.6,16.1-11.3,39.5-29.6,49-9.8,5.1-19.9,6.2-27.3.1-14.7-12.1,2.4-34.6,18.4-43,1.7-.9,3.4-1.6,5-2.1-18.5-3.7-28.6-36.2.4-51.3M35.1,10.4h0c-14.5,7.5-22,20.5-20,34.6,1.2,8.5,5.8,15.9,12.1,20.2-10.9,6.5-22.2,19-23.5,31.2-.7,6.7,1.7,12.4,6.9,16.7,8,6.6,19.2,6.7,31.5.3s27.6-22.6,31.6-37.2c4.2,6.4,10,12.7,17.2,15.4,5.6,2,11.2,1.6,16.8-1.3s1.7-1,2.6-1.5c9.1-6,12.5-14.8,9.3-24.3-4.4-13.5-22-26.8-45-28,3.6-7.8,3.2-15.5-1.1-21.8-5.4-7.8-16.2-11.6-25.6-9.1-4.7,1.2-8.9,2.9-12.7,4.8h0Z"/>
  </g>
  <g>
    <ellipse class="cls-5" cx="60.4" cy="38.2" rx="10.2" ry="17.8" transform="translate(-8.8 56) rotate(-46.7)"/>
    <path class="cls-3" d="M49,24.8c4.4-2.3,12,0,18.3,6,7.2,6.7,9.8,15.5,6,19.6-.5.5-1,.9-1.6,1.2-4.4,2.3-12,0-18.3-6-7.2-6.7-9.8-15.5-6-19.6.5-.5,1-.9,1.6-1.2M47.3,21.4h0c-1,.5-1.9,1.2-2.7,2-2.8,3-3.5,7.6-2,12.6,1.3,4.3,4.2,8.8,8.2,12.5,7.4,7,16.8,9.7,22.7,6.6s1.9-1.2,2.7-2c2.8-3,3.5-7.6,2-12.6-1.3-4.3-4.2-8.8-8.2-12.5-7.4-7-16.8-9.7-22.7-6.6h0Z"/>
  </g>
  <g>
    <path class="cls-4" d="M47.2,46.8c14-12.3,18.8-7.3,11.4-1.5-10.9,8.6-13,7.1-13,7.1l1.6-5.6Z"/>
    <path class="cls-3" d="M55.8,40.6c7.1-3.7,8.5.2,2.9,4.6-3.9,3.1-6.7,4.9-8.6,5.9-3.5,1.8-4.4,1.2-4.4,1.2l1.6-5.6c3.4-3,6.3-5,8.6-6.2M54,37.2h0c-2.8,1.5-5.9,3.7-9.3,6.7-.6.5-1,1.1-1.2,1.8l-1.6,5.6c-.4,1.6.1,3.2,1.4,4.2,2.8,2.1,7.1-.1,8.5-.9,2.5-1.3,5.6-3.4,9.3-6.3,6.7-5.3,4.8-9.4,4.1-10.6-.9-1.4-3.8-4.3-11.1-.5h0Z"/>
  </g>
  <g>
    <ellipse class="cls-5" cx="39.3" cy="49.2" rx="10.2" ry="17.8" transform="translate(-7.4 7) rotate(-9.3)"/>
    <path class="cls-3" d="M34.6,32.3c.6-.3,1.2-.5,1.8-.6,5.5-.9,11.3,6.2,12.9,15.9,1.4,8.6-1,16.3-5.4,18.6s-1.2.5-1.8.6c-5.5.9-11.3-6.2-12.9-15.9-1.4-8.6,1-16.3,5.4-18.6M32.8,28.8h0c-6,3.1-9,12.4-7.4,22.6.9,5.3,2.9,10.2,5.8,13.7,3.3,4.1,7.5,6,11.5,5.4,1-.2,2-.5,3-1,6-3.1,9-12.4,7.4-22.6-.9-5.3-2.9-10.2-5.8-13.7-3.3-4.1-7.5-6-11.5-5.4-1,.2-2,.5-3,1h0Z"/>
  </g>
  <path class="cls-3" d="M39.1,56.7c0,.2.5,1.3-.2,2.2-.7.9-2.1.9-2.9.6-.2,0-1.2-.4-1.5-1.2-.6-1.3.4-3.3,1.9-3.6,1.3-.2,2.3.9,2.7,2Z"/>
  <path class="cls-3" d="M71.8,37.3c0,.2.5,1.3-.2,2.2-.7.9-2.1.9-2.9.6-.2,0-1.2-.4-1.5-1.2-.6-1.3.4-3.3,1.9-3.6,1.3-.2,2.3.9,2.7,2Z"/>
  <g>
    <path class="cls-5" d="M48.1,76.5c5.8-1.1,22.9-7.7,29.5-15.3,4.3-5-1.2-9-4.4-5.4-3.1,2.7-13.2,11-26.7,13.1-5.2,0-4.3,8.8,1.6,7.6Z"/>
    <path class="cls-3" d="M74.8,66.3c-8.4,6.4-21.7,11.1-26.3,12.1h0c-2.4.5-4.6-.3-6-2.1-1.4-1.9-1.7-4.5-.7-6.5.9-1.7,2.5-2.8,4.6-2.8,12.3-2,21.9-9.3,25.5-12.5,2.4-2.6,5.6-2.4,7.5-.7,2,1.7,2.7,5.2-.3,8.7-1.2,1.3-2.6,2.7-4.2,3.9ZM45.6,71c-.2.1-.3.3-.3.4-.4.7-.2,1.8.3,2.5.5.6,1.2.8,2.2.7h0c5.5-1.1,22.3-7.5,28.4-14.7,1.2-1.4,1.4-2.7.7-3.3-.5-.4-1.4-.4-2.2.4,0,0-.1.1-.2.2-3.8,3.4-14.2,11.4-27.7,13.5,0,0-.2,0-.3,0-.4,0-.7.1-.9.3Z"/>
  </g>
</svg>