<?xml version="1.0" encoding="utf-8"?>
<!-- Generator: Adobe Illustrator 28.4.1, SVG Export Plug-In . SVG Version: 6.00 Build 0)  -->
<svg version="1.1" baseProfile="tiny" id="Calque_1"
	 xmlns="http://www.w3.org/2000/svg" xmlns:xlink="http://www.w3.org/1999/xlink" x="0px" y="0px" viewBox="0 0 149.9 406.8"
	 overflow="visible" xml:space="preserve">
<path fill="#A6D1A5" d="M91.3,406.8h-27c0-63.9-17.8-118.6-33.6-166.9C18,200.9,7,167.2,8.4,136.9c1.6-35,20.2-61.4,56.8-80.8
	L77.8,80c-36.1,19.1-41.7,41.1-42.4,58.1c-1.1,25.4,9.1,56.9,21,93.4C72,279.2,91.3,338.6,91.3,406.8z"/>
<path fill="#EED75F" d="M136.3,55.9l-17.6-4.4l15.6-9.5c5-3,6.6-9.5,3.6-14.5c-3-5-9.4-6.6-14.4-3.6l-15.6,9.5l4.4-17.8
	c1.4-5.7-2-11.4-7.6-12.8h0C99.1,1.4,93.4,4.8,92,10.5l-4.4,17.8l-9.3-15.7c-3-5-9.4-6.6-14.4-3.6c-5,3-6.6,9.5-3.6,14.5l9.3,15.7
	l-17.6-4.4c-5.6-1.4-11.3,2.1-12.7,7.7c-1.4,5.7,2,11.4,7.6,12.8l17.6,4.4l-15.6,9.5c-5,3-6.6,9.5-3.6,14.5c3,5,9.4,6.6,14.4,3.6
	l15.6-9.5l-4.4,17.8c-1.4,5.7,2,11.4,7.6,12.8c5.6,1.4,11.3-2.1,12.7-7.7L95.6,83l9.3,15.7c3,5,9.4,6.6,14.4,3.6
	c5-3,6.6-9.5,3.6-14.5l-9.3-15.7l17.6,4.4c5.6,1.4,11.3-2.1,12.7-7.7C145.4,63,142,57.3,136.3,55.9"/>
<rect x="-28.6" y="-19.9" fill="none" width="288.5" height="426.6"/>
</svg>
