<?xml version="1.0" encoding="UTF-8"?>
<svg id="Calque_1" data-name="Calque 1" xmlns="http://www.w3.org/2000/svg" version="1.1" viewBox="0 0 936.8 513.6">
  <defs>
    <style>
      .cls-1 {
        fill: #000;
        stroke-width: 0px;
      }
    </style>
  </defs>
  <path class="cls-1" d="M160.6,163.3c-6.9-2.9-16.2-3.6-33.3,1.8-28,8.9-60,21.9-84.2,39.8-11.3,8.3-17,13.3-27.7,24C.4,243.9.5,252.2.4,261c-.2,13-.3,23.6-.2,44.8,0,15.5-.3,25.6,0,43.6C.5,366.8,0,370.8.1,391c0,9.3,2,8.9,15.8,12,18.6,4.2,73.5,16.8,79.7,18,4.5.8,5.8,1.4,5.8-7.6,0-33-5-39.5-18-67.5,6.7,14.4,24.1,27.9,43.9,26.6,11-.7,19.2-5.9,23.1-8.6,45-32.2,57-180.7,10.2-200.6ZM116.4,281.7c-7.9,5.3-18.9,2.3-25.2-3.2-1.2-1-7-6.1-7.1-13.2-.2-15,24.7-28.8,34.5-22.7,6.1,3.8,5.7,15,5.6,19.1,0,5.4-.4,15.1-7.8,20Z"/>
  <path class="cls-1" d="M278.9,346c155-3,131.5-187.8,68.6-216.8-56.6-26.2-102.2,9.4-124.5,38.7-32.1,42.1-26.1,66.1-26.6,87.5-.1,2.7.5,5.7,1.1,32.8.2,11.5-.1,21.4-.1,30.6-.3,68.7-.5,100,0,115.5.3,8.5-.5,9.5,6.3,10.8,10.1,1.9,47.7,10.9,77.2,18,6.9,1.7,8.3,1,9-6,.8-8.1,1.6-13.6,2.4-20.8.2-1.6.4-3.4.6-5.2l8.8,53.2c2.2,8.8-.5,7.3,47.2,17.8,50,11,47,13,47-4.3,0-90.8-45.3-153.2-117-151.8ZM274.9,226c3-18,21-26,30-25,11.9,1.3,30.2,18.3,1,44-17,15-35.5,8.4-31-19Z"/>
  <path class="cls-1" d="M63.4,206"/>
  <path class="cls-1" d="M529.7,503.8c-.5,6.3-2.7,6.3-12.9,6.2-5.4,0-58.2.1-58.2.1-3.3,0-5.1,0-6.7-.3-3-.4-2.5-3-3.7-12.9-1.9-17.6-19.6-148.3-46.1-356.5-1.1-8.6,0-8,8.5-6.6,3.5.6,112.4,21.2,112.4,21.2,6.6.9,5.6.9,5.7,13.3.3,115.2.7,220.4,1,335.5Z"/>
  <path class="cls-1" d="M725.8,172c11.2,10.2,14.6,10.9,14.6,16.1v77.4c0,9.8,2.3,16.9-9.8,8.4-56.7-39.9-96.7-79.2-95.7-33.7.5,15.2,9.4,25.2,43.5,48.2,60.5,40.8,118,209.6-35.5,219.4-35.4,2.2-100.6-7.6-101.1-73v-35.8c0-56.7-3-51.1,13.5-50.6,15,.4,66.6,0,66.6,0,6.4,0,7.4,5,7.4,9v42c0,25,25,14,24,0,1-74-111.7-17-111.6-151.8,0-53.4,9.4-76.9,17-89.5,28.2-46.3,87.2-59,167.1,13.9Z"/>
  <path class="cls-1" d="M821.6,334.3c0,43.1.5,89.9.2,106.3-.2,9.9,1,8-25.5,13.9l-42.4,9.6c-7,1.2-7-2.1-7-6.2v-230c-2.9-45.9,34.1-78.9,74.7-53.1,18.3,11.6,32.1,44.3,33.3,88.3,29.8-58.2,81.6-19.3,81.6,15.5v66.6q0,3.2-4.6,4.6c-2.9.8-39.3,8.9-39.3,8.9-4.2.6-4.1-.9-4.1-3.7v-44.5c0,40.9-21.1,49.4-33.1,52.1-5.2,1.1-33.8,8-33.8-28.3Z"/>
  <path class="cls-1" d="M528.5,61.1c.9,4.7,6.4,35.6-13.8,55.4-21.6,21.3-57.3,14.6-77.6,3.9-6-3.2-27.9-14.7-33.8-37.6C394.3,47.6,426.5-1,467.3,0c32.8.8,56.1,33.2,61.2,61.1Z"/>
</svg>