<?xml version="1.0" encoding="utf-8"?>
<!-- Generator: Adobe Illustrator 28.4.1, SVG Export Plug-In . SVG Version: 6.00 Build 0)  -->
<svg version="1.1" baseProfile="tiny" id="Calque_1"
	 xmlns="http://www.w3.org/2000/svg" xmlns:xlink="http://www.w3.org/1999/xlink" x="0px" y="0px" viewBox="0 0 1920 37.2"
	 overflow="visible" xml:space="preserve">
<path fill="#9A8FE0" d="M1920,14.8v22.4H0V14.8c3.8,0,5.7-1.9,8.8-5.1C12,6.2,16,1.9,24,1.9s12,4.3,15.2,7.7c3.1,3.3,5,5.1,8.8,5.1
	s5.7-1.9,8.8-5.1C60,6.2,64,1.9,72,1.9s12,4.3,15.2,7.7c3.1,3.3,5,5.1,8.8,5.1c3.8,0,5.7-1.9,8.8-5.1C108,6.2,112,1.9,120,1.9
	s12,4.3,15.2,7.7c3.1,3.3,5,5.1,8.8,5.1c3.8,0,5.7-1.9,8.8-5.1C156,6.2,160,1.9,168,1.9s12,4.3,15.2,7.7c3.1,3.3,5,5.1,8.8,5.1
	c3.8,0,5.7-1.9,8.8-5.1c3.2-3.4,7.2-7.7,15.2-7.7s12,4.3,15.2,7.7c3.1,3.3,5,5.1,8.8,5.1c3.8,0,5.7-1.9,8.8-5.1
	c3.2-3.4,7.2-7.7,15.2-7.7s12,4.3,15.2,7.7c3.1,3.3,5,5.1,8.8,5.1c3.8,0,5.7-1.9,8.8-5.1c3.2-3.4,7.2-7.7,15.2-7.7s12,4.3,15.2,7.7
	c3.1,3.3,5,5.1,8.8,5.1c3.8,0,5.7-1.9,8.8-5.1c3.2-3.4,7.2-7.7,15.2-7.7s12,4.3,15.2,7.7c3.1,3.3,5,5.1,8.8,5.1
	c3.8,0,5.7-1.9,8.8-5.1c3.2-3.4,7.2-7.7,15.2-7.7s12,4.3,15.2,7.7c3.1,3.3,5,5.1,8.8,5.1c3.8,0,5.7-1.9,8.8-5.1
	c3.2-3.4,7.2-7.7,15.2-7.7s12,4.3,15.2,7.7c3.1,3.3,5,5.1,8.8,5.1c3.8,0,5.7-1.9,8.8-5.1c3.2-3.4,7.2-7.7,15.2-7.7
	c8,0,12,4.3,15.2,7.7c3.1,3.3,5,5.1,8.8,5.1c3.8,0,5.7-1.9,8.8-5.1c3.2-3.4,7.2-7.7,15.2-7.7s12,4.3,15.2,7.7c3.1,3.3,5,5.1,8.8,5.1
	c3.8,0,5.7-1.9,8.8-5.1c3.2-3.4,7.2-7.7,15.2-7.7s12,4.3,15.2,7.7c3.1,3.3,5,5.1,8.8,5.1c3.8,0,5.7-1.9,8.8-5.1
	c3.2-3.4,7.2-7.7,15.2-7.7s12,4.3,15.2,7.7c3.1,3.3,5,5.1,8.8,5.1c3.8,0,5.7-1.9,8.8-5.1c3.2-3.4,7.2-7.7,15.2-7.7s12,4.3,15.2,7.7
	c3.1,3.3,5,5.1,8.8,5.1c3.8,0,5.7-1.9,8.8-5.1c3.2-3.4,7.2-7.7,15.2-7.7s12,4.3,15.2,7.7c3.1,3.3,5,5.1,8.8,5.1
	c3.8,0,5.7-1.9,8.8-5.1c3.2-3.4,7.2-7.7,15.2-7.7s12,4.3,15.2,7.7c3.1,3.3,5,5.1,8.8,5.1s5.7-1.9,8.8-5.1c3.2-3.4,7.2-7.7,15.2-7.7
	s12,4.3,15.2,7.7c3.1,3.3,5,5.1,8.8,5.1c3.8,0,5.7-1.9,8.8-5.1c3.2-3.4,7.2-7.7,15.2-7.7s12,4.3,15.2,7.7c3.1,3.3,5,5.1,8.8,5.1
	c3.8,0,5.7-1.9,8.8-5.1c3.2-3.4,7.2-7.7,15.2-7.7s12,4.3,15.2,7.7c3.1,3.3,5,5.1,8.8,5.1c3.8,0,5.7-1.9,8.8-5.1
	c3.2-3.4,7.2-7.7,15.2-7.7s12,4.3,15.2,7.7c3.1,3.3,5,5.1,8.8,5.1c3.8,0,5.7-1.9,8.8-5.1c3.2-3.4,7.2-7.7,15.2-7.7s12,4.3,15.2,7.7
	c3.1,3.3,5,5.1,8.8,5.1c3.8,0,5.7-1.9,8.8-5.1c3.2-3.4,7.2-7.7,15.2-7.7s12,4.3,15.2,7.7c3.1,3.3,5,5.1,8.8,5.1
	c3.8,0,5.7-1.9,8.8-5.1c3.2-3.4,7.2-7.7,15.2-7.7s12,4.3,15.2,7.7c3.1,3.3,5,5.1,8.8,5.1c3.8,0,5.7-1.9,8.8-5.1
	c3.2-3.4,7.2-7.7,15.2-7.7s12,4.3,15.2,7.7c3.1,3.3,5,5.1,8.8,5.1c3.8,0,5.7-1.9,8.8-5.1c3.2-3.4,7.2-7.7,15.2-7.7s12,4.3,15.2,7.7
	c3.1,3.3,5,5.1,8.8,5.1c3.8,0,5.7-1.9,8.8-5.1c3.2-3.4,7.2-7.7,15.2-7.7s12,4.3,15.2,7.7c3.1,3.3,5,5.1,8.8,5.1
	c3.8,0,5.7-1.9,8.8-5.1c3.2-3.4,7.2-7.7,15.2-7.7s12,4.3,15.2,7.7c3.1,3.3,5,5.1,8.8,5.1c3.8,0,5.7-1.9,8.8-5.1
	c3.2-3.4,7.2-7.7,15.2-7.7s12,4.3,15.2,7.7c3.1,3.3,5,5.1,8.8,5.1c3.8,0,5.7-1.9,8.8-5.1c3.2-3.4,7.2-7.7,15.2-7.7s12,4.3,15.2,7.7
	c3.1,3.3,5,5.1,8.8,5.1c3.8,0,5.7-1.9,8.8-5.1c3.2-3.4,7.2-7.7,15.2-7.7c8,0,12,4.3,15.2,7.7c3.1,3.3,5,5.1,8.8,5.1
	c3.8,0,5.7-1.9,8.8-5.1c3.2-3.4,7.2-7.7,15.2-7.7s12,4.3,15.2,7.7c3.1,3.3,5,5.1,8.8,5.1c3.8,0,5.7-1.9,8.8-5.1
	c3.2-3.4,7.2-7.7,15.2-7.7s12,4.3,15.2,7.7c3.1,3.3,5,5.1,8.8,5.1c3.8,0,5.7-1.9,8.8-5.1c3.2-3.4,7.2-7.7,15.2-7.7s12,4.3,15.2,7.7
	c3.1,3.3,5,5.1,8.8,5.1c3.8,0,5.7-1.9,8.8-5.1c3.2-3.4,7.2-7.7,15.2-7.7s12,4.3,15.2,7.7c3.1,3.3,5,5.1,8.8,5.1
	c3.8,0,5.7-1.9,8.8-5.1c3.2-3.4,7.2-7.7,15.2-7.7c8,0,12,4.3,15.2,7.7c3.1,3.3,5,5.1,8.8,5.1c3.8,0,5.7-1.9,8.8-5.1
	c3.2-3.4,7.2-7.7,15.2-7.7s12,4.3,15.2,7.7c3.1,3.3,5,5.1,8.8,5.1c3.8,0,5.7-1.9,8.8-5.1c3.2-3.4,7.2-7.7,15.2-7.7
	c8,0,12,4.3,15.2,7.7c3.1,3.3,5,5.1,8.8,5.1s5.7-1.9,8.8-5.1c3.2-3.4,7.2-7.7,15.2-7.7s12,4.3,15.2,7.7c3.1,3.3,5,5.1,8.8,5.1
	c3.8,0,5.7-1.9,8.8-5.1c3.2-3.4,7.2-7.7,15.2-7.7s12,4.3,15.2,7.7C1914.3,12.9,1916.2,14.8,1920,14.8z"/>
</svg>
