<?xml version="1.0" encoding="UTF-8"?>
<svg id="Calque_1" data-name="Calque 1" xmlns="http://www.w3.org/2000/svg" version="1.1" viewBox="0 0 1920 37.2">
  <defs>
    <style>
      .cls-1 {
        fill: #9a8fe0;
        stroke-width: 0px;
      }
    </style>
  </defs>
  <path class="cls-1" d="M127.2,33.3c.3,1.9,2.6,14.6-5.6,22.7-8.8,8.7-23.4,5.9-31.7,1.6-2.5-1.3-11.4-6-13.8-15.4-3.7-14.4,9.5-34.3,26.2-33.8,13.4.3,22.9,13.6,25,25Z"/>
  <path class="cls-1" d="M142.8,9.1c7.7,1.7,13,12.9,1.4,18.8,17.2,7.8,22.2,28.9,7.7,30.5-14.5,1.5-11.6-21.3-11.6-21.3-.8,13.9-32.3,23.2-38,9.9-4.3-10,12.4-16.7,21.6-15.1-8.5-6.8-3.6-27.7,19-22.7Z"/>
  <path class="cls-1" d="M31.8,22.7l24.9-14.1c.4-.2.9-.2,1.3,0l24.8,12c.5.2.8.8.8,1.3l-1.7,33c0,.7-.5,1.2-1.2,1.3l-27.3,4c-.3,0-.7,0-1-.2l-18.5-12c-.4-.2-.6-.6-.6-1l-2.1-22.8c0-.5.2-1.1.7-1.3Z"/>
  <path class="cls-1" d="M188.9,8.5c-2.6,0-5,2.2-6.9,5.9-1.9-3.7-4.3-5.9-6.9-5.9s-5,2.2-6.9,5.9c-1.9-3.8-4.3-6-6.9-6-6.2,0-11.3,12.7-11.3,28.4s5,28.4,11.3,28.4,5-2.2,6.9-5.9c1.9,3.8,4.3,6,6.9,6s5-2.2,6.9-5.9c1.9,3.7,4.3,5.9,6.9,5.9,6.2,0,11.3-12.7,11.3-28.4s-5-28.4-11.3-28.4Z"/>
  <path class="cls-1" d="M45.5,36.3c-.1-1.7-4.1-3.1-12-5.3.2-.4.4-.7.6-1.1.5-.9,5.8-11.2,3.1-13.5-1.3-1.1-5.4.9-13,5.2-2-7.6-3.7-13-6.6-13.4-3.5-.4-6.9,6.4-7.5,7.4-.6,1.2-1,2.3-1.3,3.8C3.7,16.6-.2,14.9-2.2,16.5c-2.8,2.2-.4,9.4,0,10.5.4,1.3.9,2.3,1.8,3.6-5.8,1.6-9.7,3.2-10,5.7-.4,3.5,6.4,6.9,7.4,7.5,1.2.6,2.3,1,3.8,1.3-2.9,5.2-4.6,9.1-3,11.1,2.2,2.8,9.4.4,10.5,0,1-.4,1.9-.7,2.9-1.3,1.2,3.5,3.9,9.8,6.6,9.6,1.7-.1,3.1-4.1,5.3-12,.4.2.7.4,1.1.6.9.5,11.2,5.8,13.5,3.1,1.1-1.3-.7-5.1-4.8-12.2.4-.1.8-.2,1.2-.3.9-.3,12-3.8,11.7-7.3Z"/>
  <path class="cls-1" d="M324.4,33.3c.3,1.9,2.6,14.6-5.6,22.7-8.8,8.7-23.4,5.9-31.7,1.6-2.5-1.3-11.4-6-13.8-15.4-3.7-14.4,9.5-34.3,26.2-33.8,13.4.3,22.9,13.6,25,25Z"/>
  <path class="cls-1" d="M340.1,9.1c7.7,1.7,13,12.9,1.4,18.8,17.2,7.8,22.2,28.9,7.7,30.5-14.5,1.5-11.6-21.3-11.6-21.3-.8,13.9-32.3,23.2-38,9.9-4.3-10,12.4-16.7,21.6-15.1-8.5-6.8-3.6-27.7,19-22.7Z"/>
  <path class="cls-1" d="M229,22.7l24.9-14.1c.4-.2.9-.2,1.3,0l24.8,12c.5.2.8.8.8,1.3l-1.7,33c0,.7-.5,1.2-1.2,1.3l-27.3,4c-.3,0-.7,0-1-.2l-18.5-12c-.4-.2-.6-.6-.6-1l-2.1-22.8c0-.5.2-1.1.7-1.3Z"/>
  <path class="cls-1" d="M386.2,8.5c-2.6,0-5,2.2-6.9,5.9-1.9-3.7-4.3-5.9-6.9-5.9s-5,2.2-6.9,5.9c-1.9-3.8-4.3-6-6.9-6-6.2,0-11.3,12.7-11.3,28.4s5,28.4,11.3,28.4,5-2.2,6.9-5.9c1.9,3.8,4.3,6,6.9,6s5-2.2,6.9-5.9c1.9,3.7,4.3,5.9,6.9,5.9,6.2,0,11.3-12.7,11.3-28.4s-5-28.4-11.3-28.4Z"/>
  <path class="cls-1" d="M242.8,36.3c-.1-1.7-4.1-3.1-12-5.3.2-.4.4-.7.6-1.1.5-.9,5.8-11.2,3.1-13.5-1.3-1.1-5.4.9-13,5.2-2-7.6-3.7-13-6.6-13.4-3.5-.4-6.9,6.4-7.5,7.4-.6,1.2-1,2.3-1.3,3.8-5.2-2.9-9.1-4.6-11.1-3-2.8,2.2-.4,9.4,0,10.5.4,1.3.9,2.3,1.8,3.6-5.8,1.6-9.7,3.2-10,5.7-.4,3.5,6.4,6.9,7.4,7.5,1.2.6,2.3,1,3.8,1.3-2.9,5.2-4.6,9.1-3,11.1,2.2,2.8,9.4.4,10.5,0,1-.4,1.9-.7,2.9-1.3,1.2,3.5,3.9,9.8,6.6,9.6,1.7-.1,3.1-4.1,5.3-12,.4.2.7.4,1.1.6.9.5,11.2,5.8,13.5,3.1,1.1-1.3-.7-5.1-4.8-12.2.4-.1.8-.2,1.2-.3.9-.3,12-3.8,11.7-7.3Z"/>
  <path class="cls-1" d="M515.1,33.3c.3,1.9,2.6,14.6-5.6,22.7-8.8,8.7-23.4,5.9-31.7,1.6-2.5-1.3-11.4-6-13.8-15.4-3.7-14.4,9.5-34.3,26.2-33.8,13.4.3,22.9,13.6,25,25Z"/>
  <path class="cls-1" d="M530.7,9.1c7.7,1.7,13,12.9,1.4,18.8,17.2,7.8,22.2,28.9,7.7,30.5-14.5,1.5-11.6-21.3-11.6-21.3-.8,13.9-32.3,23.2-38,9.9-4.3-10,12.4-16.7,21.6-15.1-8.5-6.8-3.6-27.7,19-22.7Z"/>
  <path class="cls-1" d="M419.7,22.7l24.9-14.1c.4-.2.9-.2,1.3,0l24.8,12c.5.2.8.8.8,1.3l-1.7,33c0,.7-.5,1.2-1.2,1.3l-27.3,4c-.3,0-.7,0-1-.2l-18.5-12c-.4-.2-.6-.6-.6-1l-2.1-22.8c0-.5.2-1.1.7-1.3Z"/>
  <path class="cls-1" d="M576.8,8.5c-2.6,0-5,2.2-6.9,5.9-1.9-3.7-4.3-5.9-6.9-5.9s-5,2.2-6.9,5.9c-1.9-3.8-4.3-6-6.9-6-6.2,0-11.3,12.7-11.3,28.4s5,28.4,11.3,28.4,5-2.2,6.9-5.9c1.9,3.8,4.3,6,6.9,6s5-2.2,6.9-5.9c1.9,3.7,4.3,5.9,6.9,5.9,6.2,0,11.3-12.7,11.3-28.4s-5-28.4-11.3-28.4Z"/>
  <path class="cls-1" d="M433.5,36.3c-.1-1.7-4.1-3.1-12-5.3.2-.4.4-.7.6-1.1.5-.9,5.8-11.2,3.1-13.5-1.3-1.1-5.4.9-13,5.2-2-7.6-3.7-13-6.6-13.4-3.5-.4-6.9,6.4-7.5,7.4-.6,1.2-1,2.3-1.3,3.8-5.2-2.9-9.1-4.6-11.1-3-2.8,2.2-.4,9.4,0,10.5.4,1.3.9,2.3,1.8,3.6-5.8,1.6-9.7,3.2-10,5.7-.4,3.5,6.4,6.9,7.4,7.5,1.2.6,2.3,1,3.8,1.3-2.9,5.2-4.6,9.1-3,11.1,2.2,2.8,9.4.4,10.5,0,1-.4,1.9-.7,2.9-1.3,1.2,3.5,3.9,9.8,6.6,9.6,1.7-.1,3.1-4.1,5.3-12,.4.2.7.4,1.1.6.9.5,11.2,5.8,13.5,3.1,1.1-1.3-.7-5.1-4.8-12.2.4-.1.8-.2,1.2-.3.9-.3,12-3.8,11.7-7.3Z"/>
  <path class="cls-1" d="M712.4,33.3c.3,1.9,2.6,14.6-5.6,22.7-8.8,8.7-23.4,5.9-31.7,1.6-2.5-1.3-11.4-6-13.8-15.4-3.7-14.4,9.5-34.3,26.2-33.8,13.4.3,22.9,13.6,25,25Z"/>
  <path class="cls-1" d="M728,9.1c7.7,1.7,13,12.9,1.4,18.8,17.2,7.8,22.2,28.9,7.7,30.5-14.5,1.5-11.6-21.3-11.6-21.3-.8,13.9-32.3,23.2-38,9.9-4.3-10,12.4-16.7,21.6-15.1-8.5-6.8-3.6-27.7,19-22.7Z"/>
  <path class="cls-1" d="M617,22.7l24.9-14.1c.4-.2.9-.2,1.3,0l24.8,12c.5.2.8.8.8,1.3l-1.7,33c0,.7-.5,1.2-1.2,1.3l-27.3,4c-.3,0-.7,0-1-.2l-18.5-12c-.4-.2-.6-.6-.6-1l-2.1-22.8c0-.5.2-1.1.7-1.3Z"/>
  <path class="cls-1" d="M774.1,8.5c-2.6,0-5,2.2-6.9,5.9-1.9-3.7-4.3-5.9-6.9-5.9s-5,2.2-6.9,5.9c-1.9-3.8-4.3-6-6.9-6-6.2,0-11.3,12.7-11.3,28.4s5,28.4,11.3,28.4,5-2.2,6.9-5.9c1.9,3.8,4.3,6,6.9,6s5-2.2,6.9-5.9c1.9,3.7,4.3,5.9,6.9,5.9,6.2,0,11.3-12.7,11.3-28.4s-5-28.4-11.3-28.4Z"/>
  <path class="cls-1" d="M630.7,36.3c-.1-1.7-4.1-3.1-12-5.3.2-.4.4-.7.6-1.1.5-.9,5.8-11.2,3.1-13.5-1.3-1.1-5.4.9-13,5.2-2-7.6-3.7-13-6.6-13.4-3.5-.4-6.9,6.4-7.5,7.4-.6,1.2-1,2.3-1.3,3.8-5.2-2.9-9.1-4.6-11.1-3-2.8,2.2-.4,9.4,0,10.5.4,1.3.9,2.3,1.8,3.6-5.8,1.6-9.7,3.2-10,5.7-.4,3.5,6.4,6.9,7.4,7.5,1.2.6,2.3,1,3.8,1.3-2.9,5.2-4.6,9.1-3,11.1,2.2,2.8,9.4.4,10.5,0,1-.4,1.9-.7,2.9-1.3,1.2,3.5,3.9,9.8,6.6,9.6,1.7-.1,3.1-4.1,5.3-12,.4.2.7.4,1.1.6.9.5,11.2,5.8,13.5,3.1,1.1-1.3-.7-5.1-4.8-12.2.4-.1.8-.2,1.2-.3.9-.3,12-3.8,11.7-7.3Z"/>
  <path class="cls-1" d="M902.3,33.3c.3,1.9,2.6,14.6-5.6,22.7-8.8,8.7-23.4,5.9-31.7,1.6-2.5-1.3-11.4-6-13.8-15.4-3.7-14.4,9.5-34.3,26.2-33.8,13.4.3,22.9,13.6,25,25Z"/>
  <path class="cls-1" d="M917.9,9.1c7.7,1.7,13,12.9,1.4,18.8,17.2,7.8,22.2,28.9,7.7,30.5-14.5,1.5-11.6-21.3-11.6-21.3-.8,13.9-32.3,23.2-38,9.9-4.3-10,12.4-16.7,21.6-15.1-8.5-6.8-3.6-27.7,19-22.7Z"/>
  <path class="cls-1" d="M806.9,22.7l24.9-14.1c.4-.2.9-.2,1.3,0l24.8,12c.5.2.8.8.8,1.3l-1.7,33c0,.7-.5,1.2-1.2,1.3l-27.3,4c-.3,0-.7,0-1-.2l-18.5-12c-.4-.2-.6-.6-.6-1l-2.1-22.8c0-.5.2-1.1.7-1.3Z"/>
  <path class="cls-1" d="M964,8.5c-2.6,0-5,2.2-6.9,5.9-1.9-3.7-4.3-5.9-6.9-5.9s-5,2.2-6.9,5.9c-1.9-3.8-4.3-6-6.9-6-6.2,0-11.3,12.7-11.3,28.4s5,28.4,11.3,28.4,5-2.2,6.9-5.9c1.9,3.8,4.3,6,6.9,6s5-2.2,6.9-5.9c1.9,3.7,4.3,5.9,6.9,5.9,6.2,0,11.3-12.7,11.3-28.4s-5-28.4-11.3-28.4Z"/>
  <path class="cls-1" d="M820.7,36.3c-.1-1.7-4.1-3.1-12-5.3.2-.4.4-.7.6-1.1.5-.9,5.8-11.2,3.1-13.5-1.3-1.1-5.4.9-13,5.2-2-7.6-3.7-13-6.6-13.4-3.5-.4-6.9,6.4-7.5,7.4-.6,1.2-1,2.3-1.3,3.8-5.2-2.9-9.1-4.6-11.1-3-2.8,2.2-.4,9.4,0,10.5.4,1.3.9,2.3,1.8,3.6-5.8,1.6-9.7,3.2-10,5.7-.4,3.5,6.4,6.9,7.4,7.5,1.2.6,2.3,1,3.8,1.3-2.9,5.2-4.6,9.1-3,11.1,2.2,2.8,9.4.4,10.5,0,1-.4,1.9-.7,2.9-1.3,1.2,3.5,3.9,9.8,6.6,9.6,1.7-.1,3.1-4.1,5.3-12,.4.2.7.4,1.1.6.9.5,11.2,5.8,13.5,3.1,1.1-1.3-.7-5.1-4.8-12.2.4-.1.8-.2,1.2-.3.9-.3,12-3.8,11.7-7.3Z"/>
  <path class="cls-1" d="M1099.6,33.3c.3,1.9,2.6,14.6-5.6,22.7-8.8,8.7-23.4,5.9-31.7,1.6-2.5-1.3-11.4-6-13.8-15.4-3.7-14.4,9.5-34.3,26.2-33.8,13.4.3,22.9,13.6,25,25Z"/>
  <path class="cls-1" d="M1004.2,22.7l24.9-14.1c.4-.2.9-.2,1.3,0l24.8,12c.5.2.8.8.8,1.3l-1.7,33c0,.7-.5,1.2-1.2,1.3l-27.3,4c-.3,0-.7,0-1-.2l-18.5-12c-.4-.2-.6-.6-.6-1l-2.1-22.8c0-.5.2-1.1.7-1.3Z"/>
  <path class="cls-1" d="M1131.3,8.5c-2.6,0-5,2.2-6.9,5.9-1.9-3.7-4.3-5.9-6.9-5.9s-5,2.2-6.9,5.9c-1.9-3.8-4.3-6-6.9-6-6.2,0-11.3,12.7-11.3,28.4s5,28.4,11.3,28.4,5-2.2,6.9-5.9c1.9,3.8,4.3,6,6.9,6s5-2.2,6.9-5.9c1.9,3.7,4.3,5.9,6.9,5.9,6.2,0,11.3-12.7,11.3-28.4s-5-28.4-11.3-28.4Z"/>
  <path class="cls-1" d="M1018,36.3c-.1-1.7-4.1-3.1-12-5.3.2-.4.4-.7.6-1.1.5-.9,5.8-11.2,3.1-13.5-1.3-1.1-5.4.9-13,5.2-2-7.6-3.7-13-6.6-13.4-3.5-.4-6.9,6.4-7.5,7.4-.6,1.2-1,2.3-1.3,3.8-5.2-2.9-9.1-4.6-11.1-3-2.8,2.2-.4,9.4,0,10.5.4,1.3.9,2.3,1.8,3.6-5.8,1.6-9.7,3.2-10,5.7-.4,3.5,6.4,6.9,7.4,7.5,1.2.6,2.3,1,3.8,1.3-2.9,5.2-4.6,9.1-3,11.1,2.2,2.8,9.4.4,10.5,0,1-.4,1.9-.7,2.9-1.3,1.2,3.5,3.9,9.8,6.6,9.6,1.7-.1,3.1-4.1,5.3-12,.4.2.7.4,1.1.6.9.5,11.2,5.8,13.5,3.1,1.1-1.3-.7-5.1-4.8-12.2.4-.1.8-.2,1.2-.3.9-.3,12-3.8,11.7-7.3Z"/>
  <path class="cls-1" d="M1260.2,33.3c.3,1.9,2.6,14.6-5.6,22.7-8.8,8.7-23.4,5.9-31.7,1.6-2.5-1.3-11.4-6-13.8-15.4-3.7-14.4,9.5-34.3,26.2-33.8,13.4.3,22.9,13.6,25,25Z"/>
  <path class="cls-1" d="M1275.9,9.1c7.7,1.7,13,12.9,1.4,18.8,17.2,7.8,22.2,28.9,7.7,30.5-14.5,1.5-11.6-21.3-11.6-21.3-.8,13.9-32.3,23.2-38,9.9-4.3-10,12.4-16.7,21.6-15.1-8.5-6.8-3.6-27.7,19-22.7Z"/>
  <path class="cls-1" d="M1164.8,22.7l24.9-14.1c.4-.2.9-.2,1.3,0l24.8,12c.5.2.8.8.8,1.3l-1.7,33c0,.7-.5,1.2-1.2,1.3l-27.3,4c-.3,0-.7,0-1-.2l-18.5-12c-.4-.2-.6-.6-.6-1l-2.1-22.8c0-.5.2-1.1.7-1.3Z"/>
  <path class="cls-1" d="M1321.9,8.5c-2.6,0-5,2.2-6.9,5.9-1.9-3.7-4.3-5.9-6.9-5.9s-5,2.2-6.9,5.9c-1.9-3.8-4.3-6-6.9-6-6.2,0-11.3,12.7-11.3,28.4s5,28.4,11.3,28.4,5-2.2,6.9-5.9c1.9,3.8,4.3,6,6.9,6s5-2.2,6.9-5.9c1.9,3.7,4.3,5.9,6.9,5.9,6.2,0,11.3-12.7,11.3-28.4s-5-28.4-11.3-28.4Z"/>
  <path class="cls-1" d="M1178.6,36.3c-.1-1.7-4.1-3.1-12-5.3.2-.4.4-.7.6-1.1.5-.9,5.8-11.2,3.1-13.5-1.3-1.1-5.4.9-13,5.2-2-7.6-3.7-13-6.6-13.4-3.5-.4-6.9,6.4-7.5,7.4-.6,1.2-1,2.3-1.3,3.8-5.2-2.9-9.1-4.6-11.1-3-2.8,2.2-.4,9.4,0,10.5.4,1.3.9,2.3,1.8,3.6-5.8,1.6-9.7,3.2-10,5.7-.4,3.5,6.4,6.9,7.4,7.5,1.2.6,2.3,1,3.8,1.3-2.9,5.2-4.6,9.1-3,11.1,2.2,2.8,9.4.4,10.5,0,1-.4,1.9-.7,2.9-1.3,1.2,3.5,3.9,9.8,6.6,9.6,1.7-.1,3.1-4.1,5.3-12,.4.2.7.4,1.1.6.9.5,11.2,5.8,13.5,3.1,1.1-1.3-.7-5.1-4.8-12.2.4-.1.8-.2,1.2-.3.9-.3,12-3.8,11.7-7.3Z"/>
  <path class="cls-1" d="M1457.5,33.3c.3,1.9,2.6,14.6-5.6,22.7-8.8,8.7-23.4,5.9-31.7,1.6-2.5-1.3-11.4-6-13.8-15.4-3.7-14.4,9.5-34.3,26.2-33.8,13.4.3,22.9,13.6,25,25Z"/>
  <path class="cls-1" d="M1473.1,9.1c7.7,1.7,13,12.9,1.4,18.8,17.2,7.8,22.2,28.9,7.7,30.5-14.5,1.5-11.6-21.3-11.6-21.3-.8,13.9-32.3,23.2-38,9.9-4.3-10,12.4-16.7,21.6-15.1-8.5-6.8-3.6-27.7,19-22.7Z"/>
  <path class="cls-1" d="M1362.1,22.7l24.9-14.1c.4-.2.9-.2,1.3,0l24.8,12c.5.2.8.8.8,1.3l-1.7,33c0,.7-.5,1.2-1.2,1.3l-27.3,4c-.3,0-.7,0-1-.2l-18.5-12c-.4-.2-.6-.6-.6-1l-2.1-22.8c0-.5.2-1.1.7-1.3Z"/>
  <path class="cls-1" d="M1519.2,8.5c-2.6,0-5,2.2-6.9,5.9-1.9-3.7-4.3-5.9-6.9-5.9s-5,2.2-6.9,5.9c-1.9-3.8-4.3-6-6.9-6-6.2,0-11.3,12.7-11.3,28.4s5,28.4,11.3,28.4,5-2.2,6.9-5.9c1.9,3.8,4.3,6,6.9,6s5-2.2,6.9-5.9c1.9,3.7,4.3,5.9,6.9,5.9,6.2,0,11.3-12.7,11.3-28.4s-5-28.4-11.3-28.4Z"/>
  <path class="cls-1" d="M1375.9,36.3c-.1-1.7-4.1-3.1-12-5.3.2-.4.4-.7.6-1.1.5-.9,5.8-11.2,3.1-13.5-1.3-1.1-5.4.9-13,5.2-2-7.6-3.7-13-6.6-13.4-3.5-.4-6.9,6.4-7.5,7.4-.6,1.2-1,2.3-1.3,3.8-5.2-2.9-9.1-4.6-11.1-3-2.8,2.2-.4,9.4,0,10.5.4,1.3.9,2.3,1.8,3.6-5.8,1.6-9.7,3.2-10,5.7-.4,3.5,6.4,6.9,7.4,7.5,1.2.6,2.3,1,3.8,1.3-2.9,5.2-4.6,9.1-3,11.1,2.2,2.8,9.4.4,10.5,0,1-.4,1.9-.7,2.9-1.3,1.2,3.5,3.9,9.8,6.6,9.6,1.7-.1,3.1-4.1,5.3-12,.4.2.7.4,1.1.6.9.5,11.2,5.8,13.5,3.1,1.1-1.3-.7-5.1-4.8-12.2.4-.1.8-.2,1.2-.3.9-.3,12-3.8,11.7-7.3Z"/>
  <path class="cls-1" d="M1652,33.3c.3,1.9,2.6,14.6-5.6,22.7-8.8,8.7-23.4,5.9-31.7,1.6-2.5-1.3-11.4-6-13.8-15.4-3.7-14.4,9.5-34.3,26.2-33.8,13.4.3,22.9,13.6,25,25Z"/>
  <path class="cls-1" d="M1667.6,9.1c7.7,1.7,13,12.9,1.4,18.8,17.2,7.8,22.2,28.9,7.7,30.5-14.5,1.5-11.6-21.3-11.6-21.3-.8,13.9-32.3,23.2-38,9.9-4.3-10,12.4-16.7,21.6-15.1-8.5-6.8-3.6-27.7,19-22.7Z"/>
  <path class="cls-1" d="M1556.6,22.7l24.9-14.1c.4-.2.9-.2,1.3,0l24.8,12c.5.2.8.8.8,1.3l-1.7,33c0,.7-.5,1.2-1.2,1.3l-27.3,4c-.3,0-.7,0-1-.2l-18.5-12c-.4-.2-.6-.6-.6-1l-2.1-22.8c0-.5.2-1.1.7-1.3Z"/>
  <path class="cls-1" d="M1713.7,8.5c-2.6,0-5,2.2-6.9,5.9-1.9-3.7-4.3-5.9-6.9-5.9s-5,2.2-6.9,5.9c-1.9-3.8-4.3-6-6.9-6-6.2,0-11.3,12.7-11.3,28.4s5,28.4,11.3,28.4,5-2.2,6.9-5.9c1.9,3.8,4.3,6,6.9,6s5-2.2,6.9-5.9c1.9,3.7,4.3,5.9,6.9,5.9,6.2,0,11.3-12.7,11.3-28.4s-5-28.4-11.3-28.4Z"/>
  <path class="cls-1" d="M1570.4,36.3c-.1-1.7-4.1-3.1-12-5.3.2-.4.4-.7.6-1.1.5-.9,5.8-11.2,3.1-13.5-1.3-1.1-5.4.9-13,5.2-2-7.6-3.7-13-6.6-13.4-3.5-.4-6.9,6.4-7.5,7.4-.6,1.2-1,2.3-1.3,3.8-5.2-2.9-9.1-4.6-11.1-3-2.8,2.2-.4,9.4,0,10.5.4,1.3.9,2.3,1.8,3.6-5.8,1.6-9.7,3.2-10,5.7-.4,3.5,6.4,6.9,7.4,7.5,1.2.6,2.3,1,3.8,1.3-2.9,5.2-4.6,9.1-3,11.1,2.2,2.8,9.4.4,10.5,0,1-.4,1.9-.7,2.9-1.3,1.2,3.5,3.9,9.8,6.6,9.6,1.7-.1,3.1-4.1,5.3-12,.4.2.7.4,1.1.6.9.5,11.2,5.8,13.5,3.1,1.1-1.3-.7-5.1-4.8-12.2.4-.1.8-.2,1.2-.3.9-.3,12-3.8,11.7-7.3Z"/>
  <path class="cls-1" d="M1849.3,33.3c.3,1.9,2.6,14.6-5.6,22.7-8.8,8.7-23.4,5.9-31.7,1.6-2.5-1.3-11.4-6-13.8-15.4-3.7-14.4,9.5-34.3,26.2-33.8,13.4.3,22.9,13.6,25,25Z"/>
  <path class="cls-1" d="M1753.9,22.7l24.9-14.1c.4-.2.9-.2,1.3,0l24.8,12c.5.2.8.8.8,1.3l-1.7,33c0,.7-.5,1.2-1.2,1.3l-27.3,4c-.3,0-.7,0-1-.2l-18.5-12c-.4-.2-.6-.6-.6-1l-2.1-22.8c0-.5.2-1.1.7-1.3Z"/>
  <path class="cls-1" d="M1875,8.5c-2.6,0-5,2.2-6.9,5.9-1.9-3.7-4.3-5.9-6.9-5.9s-5,2.2-6.9,5.9c-1.9-3.8-4.3-6-6.9-6-6.2,0-11.3,12.7-11.3,28.4s5,28.4,11.3,28.4,5-2.2,6.9-5.9c1.9,3.8,4.3,6,6.9,6s5-2.2,6.9-5.9c1.9,3.7,4.3,5.9,6.9,5.9,6.2,0,11.3-12.7,11.3-28.4s-5-28.4-11.3-28.4Z"/>
  <path class="cls-1" d="M1767.6,36.3c-.1-1.7-4.1-3.1-12-5.3.2-.4.4-.7.6-1.1.5-.9,5.8-11.2,3.1-13.5-1.3-1.1-5.4.9-13,5.2-2-7.6-3.7-13-6.6-13.4-3.5-.4-6.9,6.4-7.5,7.4-.6,1.2-1,2.3-1.3,3.8-5.2-2.9-9.1-4.6-11.1-3-2.8,2.2-.4,9.4,0,10.5.4,1.3.9,2.3,1.8,3.6-5.8,1.6-9.7,3.2-10,5.7-.4,3.5,6.4,6.9,7.4,7.5,1.2.6,2.3,1,3.8,1.3-2.9,5.2-4.6,9.1-3,11.1,2.2,2.8,9.4.4,10.5,0,1-.4,1.9-.7,2.9-1.3,1.2,3.5,3.9,9.8,6.6,9.6,1.7-.1,3.1-4.1,5.3-12,.4.2.7.4,1.1.6.9.5,11.2,5.8,13.5,3.1,1.1-1.3-.7-5.1-4.8-12.2.4-.1.8-.2,1.2-.3.9-.3,12-3.8,11.7-7.3Z"/>
  <path class="cls-1" d="M1908.5,22.7l24.9-14.1c.4-.2.9-.2,1.3,0l24.8,12c.5.2.8.8.8,1.3l-1.7,33c0,.7-.5,1.2-1.2,1.3l-27.3,4c-.3,0-.7,0-1-.2l-18.5-12c-.4-.2-.6-.6-.6-1l-2.1-22.8c0-.5.2-1.1.7-1.3Z"/>
  <path class="cls-1" d="M1922.3,36.3c-.1-1.7-4.1-3.1-12-5.3.2-.4.4-.7.6-1.1.5-.9,5.8-11.2,3.1-13.5-1.3-1.1-5.4.9-13,5.2-2-7.6-3.7-13-6.6-13.4-3.5-.4-6.9,6.4-7.5,7.4-.6,1.2-1,2.3-1.3,3.8-5.2-2.9-9.1-4.6-11.1-3-2.8,2.2-.4,9.4,0,10.5.4,1.3.9,2.3,1.8,3.6-5.8,1.6-9.7,3.2-10,5.7-.4,3.5,6.4,6.9,7.4,7.5,1.2.6,2.3,1,3.8,1.3-2.9,5.2-4.6,9.1-3,11.1,2.2,2.8,9.4.4,10.5,0,1-.4,1.9-.7,2.9-1.3,1.2,3.5,3.9,9.8,6.6,9.6,1.7-.1,3.1-4.1,5.3-12,.4.2.7.4,1.1.6.9.5,11.2,5.8,13.5,3.1,1.1-1.3-.7-5.1-4.8-12.2.4-.1.8-.2,1.2-.3.9-.3,12-3.8,11.7-7.3Z"/>
</svg>